<svg xmlns="http://www.w3.org/2000/svg" width="251.432" height="11.647" viewBox="0 0 251.432 11.647">
  <g id="Group_337" data-name="Group 337" transform="translate(445.529 -161.664)">
    <path id="Path_290" data-name="Path 290" d="M-177.561,164.277l-.323-.808-1.724,1.027Z" transform="translate(-16.537 0.493)" fill="#e881b5"/>
    <path id="Path_291" data-name="Path 291" d="M-190.884,163.453c-1.583.887-4.606,1.451-4.656,3.141l2.862-1.509c.4,1.281,2.283,1.2,3.947.782l-1.888.08c.488-.171.177-.98.663-1.152,2.888.654,3.625-1.108,6.294.289l-.151.135,2.1-.828c.665.191.4.791.188,1.02a13.751,13.751,0,0,1,5.843-1.3c-1.971-2.312-5.584,1.8-7.546-.514l.148-.135C-185.533,164.32-188.39,162.825-190.884,163.453Z" transform="translate(-20.889 0.445)" fill="#e881b5"/>
    <path id="Path_292" data-name="Path 292" d="M-184.492,164.957l-.166.06C-184.647,165.082-184.575,165.044-184.492,164.957Z" transform="translate(-17.916 0.9)" fill="#e881b5"/>
    <path id="Path_293" data-name="Path 293" d="M-264.525,162.324l-.1.367C-264.475,162.558-264.334,162.425-264.525,162.324Z" transform="translate(-10.919 0.18)" fill="#e881b5"/>
    <path id="Path_294" data-name="Path 294" d="M-240.036,165.993c-.052-.017-.1-.027-.152-.045C-240.385,166.461-240.282,166.334-240.036,165.993Z" transform="translate(-12.401 1.17)" fill="#e881b5"/>
    <path id="Path_295" data-name="Path 295" d="M-397.3,162.878l-.61-.535C-397.754,162.84-397.54,162.946-397.3,162.878Z" transform="translate(13.008 0.185)" fill="#e881b5"/>
    <path id="Path_296" data-name="Path 296" d="M-430.244,162.435c-.022.008-.042.015-.062.024C-430.286,162.45-430.26,162.443-430.244,162.435Z" transform="translate(4.158 0.211)" fill="#e881b5"/>
    <path id="Path_297" data-name="Path 297" d="M-415.306,168.077l.083.469C-415.143,168.282-415.188,168.144-415.306,168.077Z" transform="translate(8.256 1.752)" fill="#e881b5"/>
    <path id="Path_298" data-name="Path 298" d="M-425.664,168.864a4.191,4.191,0,0,0-1.123-.222A1.21,1.21,0,0,0-425.664,168.864Z" transform="translate(5.12 1.906)" fill="#e881b5"/>
    <path id="Path_299" data-name="Path 299" d="M-429.847,162.28a1.818,1.818,0,0,1-.41.2A1.129,1.129,0,0,0-429.847,162.28Z" transform="translate(4.172 0.168)" fill="#e881b5"/>
    <path id="Path_300" data-name="Path 300" d="M-399.357,168.757l.526,1.227A2.755,2.755,0,0,0-399.357,168.757Z" transform="translate(12.612 1.938)" fill="#e881b5"/>
    <path id="Path_301" data-name="Path 301" d="M-428.372,169.677a1.324,1.324,0,0,0-.705-.435A.8.8,0,0,0-428.372,169.677Z" transform="translate(4.494 2.07)" fill="#e881b5"/>
    <path id="Path_302" data-name="Path 302" d="M-194.04,163.529a6.117,6.117,0,0,0,1.343-.174A2.269,2.269,0,0,0-194.04,163.529Z" transform="translate(-20.479 0.452)" fill="#e881b5"/>
    <path id="Path_303" data-name="Path 303" d="M-339.526,169.629a1.329,1.329,0,0,0-.242.469C-339.469,169.989-339.452,169.82-339.526,169.629Z" transform="translate(-6.393 2.176)" fill="#e881b5"/>
    <path id="Path_304" data-name="Path 304" d="M-374.565,169.476l-.146.041a1.206,1.206,0,0,0,.185.195Z" transform="translate(-4.274 2.134)" fill="#e881b5"/>
    <path id="Path_305" data-name="Path 305" d="M-364.337,169.32a1.723,1.723,0,0,0-.172.265A.469.469,0,0,0-364.337,169.32Z" transform="translate(-4.889 2.091)" fill="#e881b5"/>
    <path id="Path_306" data-name="Path 306" d="M-382.222,170.484a1.836,1.836,0,0,0-.457.418Z" transform="translate(-3.81 2.409)" fill="#e881b5"/>
    <path id="Path_307" data-name="Path 307" d="M-394.259,171.626c.3.435-.021.844-.343,1.254,1.695.587,2.257-.934,4.019.123l-.827-.6c1.138-.89,3.241-1.081,4.259.089l-.317.4c1.084-.977,2.789.834,3.25.006-.445-.535.02-.842-.67-1.342l2.755-1.01.207,1.653,1.448-.55c-.357-.661,1.94.522,1.978-1.04.826.6-.341,1.253-.635,1.894.816-.479.9.229,1.66-.722l.806,1.439,2.125-1.036c-.107.137.025.239-.078.374.971-1.226,2.466.715,3.7-1.39-.064.078-.046.146-.064.242.677-1.139,2.35-.317,2.961-.073,1.1-.281.455-1.388.5-2,3.176.372,2.161.279,4.829-1.436,1.6,1.808-1.887,2.921.143,4.182.272-.88,1.679-1.572,3.267-1.925,1.454.624,3.888,1.1,5.3,2.34l-.145-1.183,2.043-.659-1.161,1.726a24.613,24.613,0,0,1,2.036-1.739c2.123-1.035,1.2,2.585,2.851.778a2.576,2.576,0,0,1,.155.378c.53-.913,1.923-.581,3.526-.922l-.558,1.521-1.04-.323c.559,1.477,1.72-.255,2.732-.165,1.058-.519.532-1.76,1.1-2.208.383.066.953-.379,1.258.053.931.465.1,1.788-.194,2.433.8-1.558,1.082-1.358,2.878-1.99.095.735-.036,1.059-.275,1.2a1.76,1.76,0,0,0,.9-1.178l.61.872c2.041,1.26,2.023-2.821,4.463-2.344-.651.817,2.1-.192,2.851.778-.846.246.405,2.224-.107,3.141,1.95.551.777-1.8,2.357-2.153l-.637,1.9c1.521-.825.37-1.017,1.924-1.608-.428.545.689.5-.232,1.115,2.025.185,1.5.018,3.282.237l.146-1.824c.6-.209.824.6.992.935-.247.036-.632-.028-.6.209.7,1.577,1.14-.89,1.946.555-.2-.577-.424-1.383.314-1.491-.237,1.117,1.132,1.035,1.187,1.5-.468-.769,1.583-.355,1.683-1.571.855.836-.269.882-.316,1.49.7-1.425,2.984-.2,3.63-1.017a2.47,2.47,0,0,1,.047.264c.9-.866,2.4-1.081,4.194-2.336l-.616,1.052c1.811.453,1.1-2.205,2.6-2.19-.316,1.492,2.486-.123,1.816,1.535.9-.853,1.851-1.236,2.437-2.526.856.835-1.622,2.045-.441,2.467l1.275-.787.229.8c.051-.606,1.169-.654,1.111-1.128.2.969.713,1.647.657,2.381.807-.293,1.943.631,2.615-.22l.061.474c.776-1.8,2.456-.365,2.847-2.225l.5,1c1.23-.18.995-2.068,1.564-2.514a3.757,3.757,0,0,1,1.611-.118c-1.6,1.2.807,1.444,1.142,2.113.63.028,2.487-.126,3-1.041-.759.951-.286,1.724-1.652,1.8.732,1.814,2.075-.428,3.607-.174l-.016.847c2.18-.565,2.248-2.018,3.19-3.482.258,1.045.043,1.316-.577,2.374,1.453.621,3.747-.08,5.386.039.516.742.176,1.174-.367,1.5,1.691-.8,3.785.177,4.849-1.682-.417.74.681.481,1.306.838,0-.383.119-.876.195-.822,1.034-.752,3.322-1.453,4.533-.791l-.437.544c2.793.306,4.021-2.88,7.071-1.528.548.4-.564,1.525.557,1.477.544-.68.365-2.1,1.788-1.706l-.1,1.216.971-1.226c-.5-1.006-2.084-.652-.975-1.777,1.273,1.132,1.111-1.125,2.657.206-.358.125-.825,1.055-1.078,1.544,3.241,1.435,4.537-1.189,7.82.341,1.634-.964,3.737-1.153,4.869-2.046a5.437,5.437,0,0,1-.839,3.248c1.4.155,2.051-2.588,3.027-.806.669-1.661,3.874-1.057,4.207-3.389.058.474,1.5.018.04,1.318,1.905-.765,2.508,2.028,3.381,2.018.491-.07-.561-1.478.558-1.521.138.1.169.335.308.433l.43-.544c.445.533-.486,1.152-.529,1.759,1.565.491,2.584-1.344,4.436-1.5l-.317.406,1.885.083-.107.135,1.52-.822-.046.6c.352-.169.434-.547.924-.619l-.157.745c.483-1.153,2.278-1.779,3.154-1.789l.167.334,2.064-1.507c1.1.8-1.4,1.772.778,1.21l-.56,1.523c1.551-.593,1.782.219,2.842-.3-.479-.77-1.213-.663-.67-1.341,1.22,1.74,1.946-.447,3.116-1.156a1.267,1.267,0,0,0-1.4.9c-.627-.028-.226-.808-.612-.876l-.89.856-.254-1.043-1.525.828c.095-1.218-1.4-.155-.806-1.442-1.066.517-1.675-.354-2.645.875-.721-.736,1.139-.891.373-1.016a40.664,40.664,0,0,1-13.091.378l.431-.547c-.431.547-1,.992-1.323,1.4-.752-.974-3.658-2.224-4.68-.39-.141-.1.08-.373.186-.511-1.477.219-4.137-1.067-6.239-.878-.888,1.938-3.159-1.211-3.955,1.43l.434-.544c.716.731-1.02,1.83-1.314,2.478-.59-1.715-.04-1.314-.743-2.9l.833.6-.184-1.416c-2.668,3.643-4.969-1.664-6.63.983.1-.138.075-.369.185-.5-1.1-.8-1.88,1-2.692,1.479-.094-.708.484-1.153.909-1.7-1.943-.553-5.206,1.374-7.348.247-.755.956.286,1.278-.5,2-.661-.265-1.131-1.034-.316-1.518-1.851-1.767-6.112,1.15-8.946-.474-1.491,1.061-.559,1.523-2.848,2.224.536-.68-.542-2.322.822-2.4l.161-.745c-2.273-.143-5.307-.415-6.548,1.692-.072-1.553-.413-.3-1.271-1.136-.349.173.032.236.173.337-.836,1.327-1.261-.053-1.858.154l.212-.272-1.634.964a1.539,1.539,0,0,1-.739-.973l.01,1.082c-.879.009-.425-1.38-1.519-1.1l.231.808c-.693-.5-1.8.626-1.948-.554-.029-.233.107-.134.354-.171-1.086-1.644-2.81.536-4.154-.227l.343,1.752c-1.308.554-.8-.36-.75-.973-.875.013-1.068-.559-2.221-.751-.569.446-.3.645-.48,1.153l-1.177-.425.756-.954c-1.81,2.549-4.542-.288-5.749,2.054-.688-.5.615-1.052.2-1.348-2.147-1.125-4.8,1.67-6.585.373-2.911-1.249-6.261-.033-9.494-.876l.059.471-2.3-.378c-.62,1.053-2.184.564-3.154,1.791.079-.373-.126-.946.095-1.218-.979.148-2.041.665-2.622.028l.328-.4c-2.166-.285-5.174-.316-6.311.574-.74.109-.722-.736-.919-1.308a4.581,4.581,0,0,0-3.1,1.18,3.278,3.278,0,0,1-.858-.83l-.477,1.148c-.524-.162-.121-.943-.535-1.241-1.953,1.372-4.233.149-5.6.232l.2.57c-.568.447-1.67-.355-.995-.933-2.712-.682-4.023,1.8-7.69,1.5-.511-2.087-3.3.611-3.844-1.714-1.55.595-2.546-.34-3.627,1.022-.032-.237-.166-.335.079-.376-.613-.867-2.655-.2-4.207.383l-.087-.7c-.559,1.521-3.243,1.08-3.8,2.6-.171-.335.3-.644.514-.918-.812-1.44-1.417.694-2.461.367.08-.373-.228-.806-.009-1.081-3.465-1.647-8.5,1.141-13.015.011-1.258-.057.456,1.612-1.187,1.5-.474-.773.8-1.561-.238-1.888-.757.954-1.032.755-2.044.665.185-.507.018-.844.727-1.192-.582-.635-2.476,1.211-3.638-.057a1.249,1.249,0,0,1-.371,1.013c-1.711,1.336-3.923-1.339-4.082-.6,0,0-.6.21-.079.372-.628-.028-1.532-.251-1.375-1-.328.41-.615,1.055-1.112,1.129l.268-.882c-.286.188-.615.745-.895.853l.445.536c-.719-.732-2.129,1.035-2.087-.649l.244-.039-1.345-.76c-.538.681-1.082,1.362-1.983,1.132-.348-1.748-2.3-.378-3.451-.564l.051-.609c-.9.85-3.2.47-2.784.772-.874.009-2.056-.418-1.621-.961-.71.346-2.214.328-2.587,1.343l-1.429-1.467c-.858,2.168-2.858-.783-2.943,1.515-.8-.36-.612-.87-1.164-1.271-1.108,1.128-2.254.937-3.407.75l-.03-.239c-1.152-.187-2.5.971-4.118,1.091l-.342-1.751c-.846.247-1.053,1.6-1.854,1.234-.187-.269-.01-.36.2-.456a2.757,2.757,0,0,1-2.451-.528c-1.217,1.262-2.152.8-3.227,2.158-.947-1.541,1.414-.686.6-2.131-1.731-.822-3.5.039-5.4.8-.164-.331.049-.6.129-.977,0,0-3.866,4.209-3.146,5.876-.478,1.15-1.021,1.831.606,2.789.54-.68,2.065-1.506,2.351-.227l.1-1.213c2.179-.565.19,2.494,2.814,2.465l-.552-.4c.493-.073.891-.852,1.446-.455.167.337-.189.507-.4.78l2.171-1.645a1.815,1.815,0,0,1-.423,1.625c1.993-.053-.4-2.22,2.034-1.742.441.533-.157.745-.479,1.151,1.128,1.036,1.887.084,3.052-.573.016,1.083-.752.955.208,1.651-.192-.568-.313-1.514.425-1.622-.357,1.094.562.582,1.282.859a.966.966,0,0,1,.191-1.081c.354-.171.655.264,1.149.192l-.884-1.072c1.241-1.027,1.944.554,2.886,1.016a.687.687,0,0,1-.429.4c.993.444,2.016,1.318,3.272.377l-.107.135c2.367-1.072-.729-1.814,2.024-2.824.9.227-.434,3.547,1.658,2.276-.991-.933,1.349-2.243,2.543-2.657l-1.233,2.1c.481.019,1.315-.564,1.579-.351l-.061-.474c-.091-1.788,1.54.252,2.406-.836-1.074,2.442-1.134,1.971-1.331,4.4.84-1.325,1.808-2.551,3.343-2.3l-1.263,1.872c2.048.415,4.458-2.344,6.14-3.914-.453,1.388.239,1.882-.494,3.073l1.968-.289-.557,1.521c.8-1.561,1.688-.489,1.557-2.512-.214.271-.186.507-.568.444.048-.611.389-1.861,1.405-1.771.686.5-.4.782-.211,1.352.653-.817.693.5,1.37-.085l-.605-.867c.477-1.156,1.123-.048,1.793-.628-.806.5-.542,1.173-.241,1.875l-.043-.152c.489-.073,1.137-.889,1.475-.218l-.417,1.622.725-1.188a.665.665,0,0,1,.007,1.08c2.249.988-.063-3.476,2.881-1.99-.05.61-.372,1.021-1.17.657-.13.979.069,1.552.865,1.914a.947.947,0,0,1,0,.182C-397.259,172.627-395.265,172.711-394.259,171.626Z" transform="translate(0)" fill="#e881b5"/>
    <path id="Path_308" data-name="Path 308" d="M-394.1,170.256a7.352,7.352,0,0,0-2.535.209C-396.423,170.779-394.045,171.269-394.1,170.256Z" transform="translate(13.355 2.346)" fill="#e881b5"/>
    <path id="Path_309" data-name="Path 309" d="M-263.233,168.9a3.753,3.753,0,0,0-.419.162C-263.506,169-263.368,168.951-263.233,168.9Z" transform="translate(-11.018 1.975)" fill="#e881b5"/>
    <path id="Path_310" data-name="Path 310" d="M-256.148,168.59a.884.884,0,0,0-.474-.358C-256.622,168.548-256.506,168.792-256.148,168.59Z" transform="translate(-11.454 1.794)" fill="#e881b5"/>
    <path id="Path_311" data-name="Path 311" d="M-329.347,169.331l.038-.013Z" transform="translate(-6.995 2.091)" fill="#e881b5"/>
    <path id="Path_312" data-name="Path 312" d="M-289.148,169.968c.788-.519,1.082-.954,1.125-1.37C-288.519,168.728-288.93,169.1-289.148,169.968Z" transform="translate(-9.582 1.894)" fill="#e881b5"/>
    <path id="Path_313" data-name="Path 313" d="M-302.636,169.169a2.951,2.951,0,0,0-.325.243C-302.708,169.321-302.639,169.25-302.636,169.169Z" transform="translate(-8.624 2.05)" fill="#e881b5"/>
    <path id="Path_314" data-name="Path 314" d="M-331.465,170.129c.759-.527,1.824-.491,2.7-.8C-329.512,169.617-330.946,169.094-331.465,170.129Z" transform="translate(-7.167 2.094)" fill="#e881b5"/>
    <path id="Path_315" data-name="Path 315" d="M-247.44,167.12l-.9.816.944-.582Z" transform="translate(-12.048 1.49)" fill="#e881b5"/>
    <path id="Path_316" data-name="Path 316" d="M-253.918,167.554c-.377-.2-1.852.317-1.426.751A3.914,3.914,0,0,1-253.918,167.554Z" transform="translate(-11.72 1.597)" fill="#e881b5"/>
    <path id="Path_317" data-name="Path 317" d="M-279.468,166.947l-.36.88.746-.679Z" transform="translate(-10.092 1.443)" fill="#e881b5"/>
  </g>
</svg>
